<svg width="21" height="22" viewBox="0 0 21 22" fill="none" xmlns="http://www.w3.org/2000/svg">
<path d="M2.9375 21.8382H17.6563C19.6016 21.8382 20.5274 21.2522 20.5274 19.9632C20.5274 16.8928 16.6602 12.4514 10.2969 12.4514C3.9336 12.4514 0.0546875 16.8928 0.0546875 19.9632C0.0546875 21.2522 0.980469 21.8382 2.9375 21.8382ZM2.375 20.0686C2.07031 20.0686 1.94141 19.9866 1.94141 19.7405C1.94141 17.8069 4.91797 14.221 10.2969 14.221C15.6758 14.221 18.6406 17.8069 18.6406 19.7405C18.6406 19.9866 18.5235 20.0686 18.2188 20.0686H2.375ZM10.2969 10.9866C13.0859 10.9866 15.3594 8.51388 15.3594 5.49048C15.3594 2.49048 13.1094 0.13501 10.2969 0.13501C7.51953 0.13501 5.23438 2.53735 5.23438 5.51392C5.2461 8.52568 7.51953 10.9866 10.2969 10.9866ZM10.2969 9.21708C8.58594 9.21708 7.1211 7.58818 7.1211 5.51392C7.1211 3.47485 8.5625 1.90454 10.2969 1.90454C12.0547 1.90454 13.4727 3.4397 13.4727 5.49048C13.4727 7.56468 12.0313 9.21708 10.2969 9.21708Z" fill="black" fill-opacity="0.85"/>
</svg>
