<!-- icon666.com - MILLIONS OF FREE VECTOR ICONS --><svg viewBox="0 0 128 128" xmlns="http://www.w3.org/2000/svg"><g><path d="m64 37.943a16.954 16.954 0 1 0 16.953 16.957 16.973 16.973 0 0 0 -16.953-16.957zm0 30.407a13.454 13.454 0 1 1 13.453-13.45 13.468 13.468 0 0 1 -13.453 13.45z"></path><path d="m64 17.25a37.689 37.689 0 0 0 -37.647 37.65c0 12.2 6.19 25.266 18.4 38.847a126.258 126.258 0 0 0 18.229 16.677 1.747 1.747 0 0 0 2.041 0 126.175 126.175 0 0 0 18.227-16.68c12.207-13.581 18.4-26.651 18.4-38.847a37.688 37.688 0 0 0 -37.65-37.647zm0 89.561c-5.787-4.44-34.147-27.456-34.147-51.914a34.147 34.147 0 1 1 68.293 0c0 24.458-28.359 47.474-34.146 51.914z"></path></g></svg>