<svg width="378" height="79" viewBox="0 0 378 79" fill="none" xmlns="http://www.w3.org/2000/svg">
<mask id="mask0_252_94" style="mask-type:luminance" maskUnits="userSpaceOnUse" x="0" y="2" width="374" height="73">
<path d="M373.333 2.1297H0V74.5336H373.333V2.1297Z" fill="white"/>
</mask>
<g mask="url(#mask0_252_94)">
<path d="M0 38.3287C0 18.3534 16.4944 2.15333 36.8491 2.1297V15.2102C23.8499 15.228 13.3284 25.573 13.3284 38.3287C13.3284 51.0843 23.8798 61.4591 36.903 61.4591C49.9263 61.4591 60.4655 51.2024 60.4655 38.2459L73.8001 38.2578C73.8001 58.3278 57.2878 74.5394 36.903 74.5394C16.5184 74.5394 0 58.3215 0 38.3287Z" fill="#222222"/>
<path d="M20.6152 38.3288C20.6152 29.4607 27.9528 22.2705 36.984 22.2705C46.0152 22.2705 53.3588 29.4607 53.3588 38.3288C53.3588 47.1967 46.021 54.3869 36.984 54.3869C27.9468 54.3869 20.6152 47.2029 20.6152 38.3288Z" fill="#222222"/>
<path d="M48.3369 17.9886C48.3369 12.9017 52.5385 8.78375 57.7155 8.78375C62.8924 8.78375 67.0998 12.9017 67.0998 17.9886C67.0998 23.0754 62.8982 27.1993 57.7155 27.1993C52.5323 27.1993 48.3369 23.0695 48.3369 17.9886Z" fill="#222222"/>
<path d="M336.495 27.1097L335.357 32.5983C332.682 44.5444 331.689 48.3908 329.372 60.272L328.858 60.6974L321.478 60.9098L321.119 60.4138L324.094 48.1779L324.962 44.1664C321.79 44.0957 318.618 44.0425 315.446 44.0425C312.968 44.0425 311.083 44.072 309.156 44.1252C308.066 48.9401 307.163 53.1703 305.768 60.2662L305.253 60.6915L297.862 60.904L297.503 60.408L300.477 48.1721L301.644 42.8429C303.595 34.4476 303.96 32.6042 305.122 24.8528L305.637 24.3565C309.03 23.9312 309.832 23.7834 313.303 23.0745L313.68 23.5708L312.896 27.0979L311.771 32.5865L310.592 37.7857C313.255 37.8506 315.919 37.892 318.6 37.892C321.424 37.892 323.286 37.8388 326.422 37.7797C327.439 33.2305 327.853 30.7491 328.744 24.8528L329.253 24.3565C332.658 23.9312 333.454 23.7834 336.937 23.0745L337.297 23.5708L336.525 27.0979L336.495 27.1097Z" fill="#222222"/>
<path d="M255.057 45.3011C253.452 51.4573 249 62.0977 235.312 62.0977C225.623 62.0977 220.308 57.1644 220.308 47.4516C220.308 46.1992 220.41 44.793 220.619 43.3278C220.667 42.9614 220.721 42.613 220.775 42.2346C223.409 26.1292 230.524 10.8686 246.139 10.715C248.216 10.6914 252.441 10.4787 255.308 9.81105L254.267 16.245C251.376 16.9717 246.798 17.3498 244.122 17.3675C240.806 17.4029 238.514 18.6378 236.922 20.1384C236.138 20.8769 235.516 21.6863 235.049 22.4249C234.576 23.1515 234.235 23.831 233.984 24.3273C236.072 23.6892 238.353 23.2875 240.92 23.2875C250.46 23.2875 256.14 28.5102 256.14 37.721C256.14 40.2201 255.709 42.7901 255.057 45.2953M247.48 43.0737C247.988 41.0059 248.347 38.938 248.347 36.9411C248.347 29.7214 243.613 28.5043 240.92 28.5043C229.489 28.5043 228.023 45.9331 228.023 48.5742C228.023 54.2934 231.518 56.7981 235.456 56.7981C243.248 56.7981 246.157 48.9405 247.474 43.0737" fill="#222222"/>
<path d="M348.995 38.7069C350.73 37.2298 351.73 36.3023 354.123 34.0336C356.655 31.6171 362.82 25.3605 363.975 24.1493L364.777 23.7298H373.12L373.329 24.3679C372.605 25.0059 372.24 25.2896 369.331 27.706C368.17 28.6394 367.458 29.3484 366.082 30.5537L356.649 39.085L367.889 60.0708L367.458 60.6317L359.408 60.8504L358.828 60.425C356.943 56.0118 356.44 55.0252 353.836 49.8261L348.755 39.729C347.157 46.7243 346.175 51.1317 344.38 60.2832L343.878 60.7086L336.48 60.9215L336.121 60.425L339.089 48.1892L340.25 42.8604C342.202 34.4648 342.567 32.6215 343.728 24.8701L344.236 24.3738C347.648 23.9484 348.438 23.8007 351.921 23.0917L352.28 23.588L351.502 27.1152L350.365 32.6038L348.983 38.7128L348.995 38.7069Z" fill="#222222"/>
<path d="M298.778 23.8598L298.419 23.2867L288.364 23.2217C281.661 23.2217 272.271 23.6412 265.496 31.428C262.437 34.9847 259.672 41.1173 259.672 46.7476C259.672 55.6572 265.723 60.7972 273.144 60.7972C279.333 60.7972 282.541 58.1565 283.78 57.1636L283.271 60.0113L283.63 60.5194L290.471 60.3718L290.992 59.8695C292.44 51.3737 292.96 48.674 295.504 37.6906L298.778 23.8538V23.8598ZM284.863 51.6752C284.067 52.3013 283.265 53.0281 282.463 53.5125C280.572 54.6589 278.094 55.1607 276.131 55.1607C269.5 55.1607 267.608 49.6723 267.608 46.2516C267.608 45.9027 267.752 36.6981 275.395 31.5758C279.698 28.7221 284.432 28.5803 286.832 28.5803C287.927 28.5803 289.01 28.6453 290.106 28.6453L284.857 51.6752H284.863Z" fill="#222222"/>
<path d="M109.426 53.9973C114.968 53.9973 117.566 48.3255 119.248 41.0229C120.439 35.8829 121.719 28.3501 115.028 28.3501C109.325 28.3501 106.799 33.7146 105.117 41.0229C103.549 47.8054 103.19 53.9973 109.421 53.9973M106.841 61.8961C98.9466 61.8961 87.5755 59.4383 91.699 41.5487C93.2372 34.8313 97.9651 20.5986 117.422 20.5986C136.879 20.5986 133.528 35.8061 132.361 41.1765C128.878 56.3012 119.457 61.8961 106.841 61.8961Z" fill="#222222"/>
<path d="M153.095 61.0038C149.439 61.0038 143.442 61.0038 140.922 61.0749L140.491 60.6317C141.191 58.2446 142.903 51.8286 144.699 44.0001C146.159 37.6609 147.451 32.0836 147.954 29.5372C144.896 29.6081 140.186 29.6081 137.894 29.6849L137.475 29.165C138.079 27.2271 138.929 23.8772 139.462 21.8685L140.162 21.4845C142.197 21.5554 149.929 21.6322 156.154 21.6322C163.682 21.6322 171.008 21.4845 172.546 21.4077L173.067 21.7917C172.504 23.57 171.517 27.2271 171.014 29.0882L170.296 29.5372C167.286 29.4722 164.999 29.4722 160.66 29.4722C160.283 31.097 159.11 35.8766 157.153 44.3726C155.681 50.7945 154.466 56.6733 153.766 60.4013L153.101 61.0038H153.095Z" fill="#222222"/>
<path d="M195.315 30.4356C192.873 30.4356 190.132 30.5124 188.911 30.5124C188.534 32.1549 187.044 38.2698 185.679 44.2308C184.063 51.2381 182.633 57.8018 182.076 60.5552L181.358 61.01C177.635 61.01 172.853 61.01 169.029 61.0811L168.604 60.6379C169.388 57.5715 171.381 49.2295 173.29 40.9462C175.212 32.6098 176.869 24.4034 177.408 22.0934L178.048 21.5675C182.154 21.5675 186.301 21.7212 196.482 21.7212C204.46 21.7212 212.187 21.4966 216.31 21.4198L216.657 21.8807C216.119 23.8953 213.832 33.5019 211.636 43.0375C209.864 50.718 208.242 58.3926 207.823 60.5552L207.261 61.01C203.999 61.01 197.99 61.01 194.86 61.0811L194.525 60.5493C195.195 57.9498 196.662 51.9117 198.385 44.4496C199.684 38.7838 201.001 32.7457 201.521 30.5065C200.3 30.5065 197.589 30.4297 195.309 30.4297" fill="#222222"/>
</g>
</svg>
